<svg id="Share_Accounts" data-name="Share Accounts" xmlns="http://www.w3.org/2000/svg" width="172.315" height="173.556" viewBox="0 0 172.315 173.556">
  <path id="Path_34310" data-name="Path 34310" d="M2111.01,164.963c-4.034-4.194-8.892-1.235-8.089,4.3a5.266,5.266,0,0,0,4.9,4.751c1.987,0,6.58-5.533,3.191-9.046M2109,169.517a1.321,1.321,0,0,1-1.279.9c-1.454-.227-1.647-3.423-.817-3.829.187-.094.755.066,1.52.859a2.162,2.162,0,0,1,.575,2.069" transform="translate(-2074.374 -46.843)" fill="#003087"/>
  <path id="Path_34311" data-name="Path 34311" d="M2077.776,156.407a5.258,5.258,0,0,0,4.9,4.749c4.427,0,6.56-5.545,3.187-9.048-4.034-4.193-8.892-1.235-8.087,4.3m6.08.259a1.3,1.3,0,0,1-1.279.9c-1.452-.225-1.651-3.419-.815-3.827.176-.085.752.061,1.517.854a2.173,2.173,0,0,1,.577,2.076" transform="translate(-2067.159 -43.149)" fill="#003087"/>
  <path id="Path_34312" data-name="Path 34312" d="M2182.106,114.523c1.069-11.115-2.806-21.46-6.034-24.958a72.6,72.6,0,0,1,9.334-2.732c2.773-.732,5.4-1.429,8-1.189,8.27.742,10.013,7.443,6.216,14.547l4.255-.773c1.541-3.878,1.733-7.3.569-10.2-1.571-3.9-5.779-6.7-10.721-7.146-6.418-.575-17.82,4.228-22.885,5.127-3.375.095-6.667,2.5-7.859,7.808a1.793,1.793,0,0,0,3.5.784,7.905,7.905,0,0,1,1.829-3.8,3.742,3.742,0,0,1,3.137-1.216c1.39.244,2.682,1.638,3.844,4.147a37.567,37.567,0,0,1,3.037,21.172,1.735,1.735,0,0,0,.173,1,1.764,1.764,0,0,0,2.32,1.715,43.55,43.55,0,0,0,16.033-9.329l-2.7-2.388a38.592,38.592,0,0,1-12.048,7.434" transform="translate(-2091.615 -23.576)" fill="#003087"/>
  <path id="Path_34313" data-name="Path 34313" d="M2097.04,97.325a1.7,1.7,0,0,0-1.251.485c-1.35,1.271-3.2,3-3.827,5.411-1.389,5.315,4.514,9.307,8.448,4.793a14.508,14.508,0,0,0,2.8-7.005c.039-3.817-3.7-5.718-6.17-3.683" transform="translate(-2071.195 -27.735)" fill="#003087"/>
  <path id="Path_34314" data-name="Path 34314" d="M2135.583,111.84a1.851,1.851,0,0,0-.288.2c-4.584,3.8-2.515,12.132,4.489,12.123,5.917,0,8.454-6.7,5.546-10.8-2.439-3.438-7.755-3.506-9.747-1.515" transform="translate(-2082.986 -31.764)" fill="#003087"/>
  <path id="Path_34315" data-name="Path 34315" d="M2167.726,60.236a1.788,1.788,0,0,0-1.083-.371,47.245,47.245,0,0,0-32.207,12.205,1.792,1.792,0,0,0,.232,2.839c2.5,1.6,5.759,2.67,7.952,4.077a1.794,1.794,0,0,0,2.031-.063,47.279,47.279,0,0,1,29.781-9.156,1.792,1.792,0,0,0,1.246-3.119c-1.816-1.643-5.326-4.393-7.952-6.413m-24.233,15.107c-1.521-.839-3.267-1.567-4.717-2.27a42.6,42.6,0,0,1,27.246-9.625c1.142.882,2.413,1.873,3.611,2.828a50.149,50.149,0,0,0-26.14,9.066" transform="translate(-2083.271 -17.206)" fill="#003087"/>
  <path id="Path_34316" data-name="Path 34316" d="M2196.384,108.7c-6.314,19.774-23.977,35.6-45,40.318-17.4,3.923-36.765.122-52.371-9.928,4.636-.318,9.7-.836,14.294-3.024,10-4.766,13.3-16.99,5.251-27.869-9.538-12.905-28.453-18.859-40.582-16.647-.819-22.726,20.236-41.461,41.593-49.4a16.106,16.106,0,0,0,11.435-1.057,21.593,21.593,0,0,0,7.177-3.2c14.9-1.4,31.135,3.119,42.83,13.308a49.421,49.421,0,0,1,8.72,10.048l1.919-3.441a51.67,51.67,0,0,0-8.281-9.306c-10.827-9.433-25.7-14.654-40.991-14.414a20.629,20.629,0,0,0,4.557-17.377C2144,1.99,2126.593-4.8,2113.977,3.766c-2.983.715-6.467,5.615-7.611,7.486-6.584,10.773-2.461,23.245,8.253,28.986a81.535,81.535,0,0,0-7.9,3.968C2098.43,33,2081.789,32.2,2074.868,39.741a1.784,1.784,0,0,0-.9,1.087c-4.529,6.373-2.219,19.648,7.148,26.222a1.815,1.815,0,0,0,.291.143c-4.967,7.893-7.662,16.966-6.95,26.011a17.042,17.042,0,0,0-7.3,3.33c-10.367,8.034-.921,30.676,19.537,38.638-.344,1.595.614-.4.264,6.537-.311,8.354,4.314,10.09,12.893,11.174,5.382,1.7,16.98,1.593,22.948.822q2.373.513,4.778.869c.094,2.676.182,4.831.131,6.715-.1,3.773,1.426,8.271,5.016,9.905,1.71,3.259,47.356,3.087,47.356-.143,0-1.29-9.048-2.353-20.736-2.508,5.341-4.5,5.022-11.629,3.977-18.326.078-.032.159-.063.238-.1,1.525,2.657,4.42,3.444,7.485,3.467,8.72,1.814,27.276.884,27.276-1.573,0-.987-3.423-1.84-8.405-2.259,4.913-3.728,2.651-8.773,1.594-21.189a57.127,57.127,0,0,0,9.3-19.185l-4.013-2.088c-.135.472-.271.943-.421,1.411m-85.069-97.332c8.824-12.861,29.113-8.954,32.106,6.038a17.53,17.53,0,0,1-14.024,20.4c-15.381,3.069-26.874-13.608-18.082-26.437m-7.707,34.634a79.832,79.832,0,0,0-7.77,5.45c-4.189-5.218-8.651-9.971-15.2-11.534,7.12-3.277,17.227-1.352,22.971,6.084m-26.868-2.942c6.951-.18,12.212,5.539,16.345,10.686a63.555,63.555,0,0,0-9.722,10.558,1.577,1.577,0,0,0-.182-.193c-7.842-5.5-9.5-16.459-6.44-21.051m42.71,78.819c-.365,4.925-3.527,9.576-9.643,11.756,8.957-10.759-10.462-33.339-23.407-38.824,15.751,1.464,34.049,13.6,33.05,27.068m-50.09-22.516a13.333,13.333,0,0,1,8.357-2.906c14.826,0,35.306,25.221,29.875,34.177-2.439,4.031-8.952,3.607-10.885,3.38-23.419-2.739-36.338-27.683-27.347-34.651m26.118,49.078c-6.159-1.509-4.721-4.122-4.825-10.043a83.07,83.07,0,0,0,18.3,10.886,35.365,35.365,0,0,1-13.478-.844m53.38,19.934c-2.73.249-12.977.854-15.215-.75-1.6-1.147-2.4-4.07-2.344-6.242.055-1.985-.033-4.169-.114-6.387a66.378,66.378,0,0,0,28.714-3.475c1.924,12.8-2.284,16.061-11.042,16.854m34.429-19.722c-3.139.681-12.064,2.039-14.994.949a3.274,3.274,0,0,1-1.4-.973,66.959,66.959,0,0,0,21.447-16.113c1.177,11.285,3.141,14.356-5.056,16.137" transform="translate(-2062.923 -0.001)" fill="#003087"/>
  <path id="Path_34317" data-name="Path 34317" d="M2149.8,35.221a1.794,1.794,0,0,0,3.459-.951l-.412-1.484c4.591-3.418,2.962-10.966-4.1-11.791-1.334-.155-3.383.035-4.361-.345-1.965-.759-1.589-3.58,1.129-4.456a5.015,5.015,0,0,1,3.908.43,1.788,1.788,0,0,0,2.443-.673c1.349-2.374-2.646-3.678-5.437-3.515a1.683,1.683,0,0,0-.168-.445.518.518,0,0,1-.072-.351,1.787,1.787,0,0,0-1.465-2.067c-1.644-.3-2.809,1.57-1.731,3.874a6.643,6.643,0,0,0-3.354,4.419,5.575,5.575,0,0,0,3.448,6.125c1.882.729,3.739.386,5.243.564a4.14,4.14,0,0,1,3.279,2.015,2.911,2.911,0,0,1-1.033,3.461,3.056,3.056,0,0,1-3.368-.447,1.8,1.8,0,0,0-2.521-.282c-1.873,1.5.488,4.722,4.75,4.618Z" transform="translate(-2084.908 -2.743)" fill="#003087"/>
  <path id="Path_34318" data-name="Path 34318" d="M2236.5,76.737l-11.331,20.317-22.385,4.07,16.857,14.93-3.583,19.576,19.09-8.176,18.418,9.584L2255.6,121.1s3.742-13.189,4.372-13.407,6.992-6.577,6.992-6.577l-22.837-3.329Z" transform="translate(-2104.152 -22.163)" fill="#f7cf7e"/>
  <path id="Path_34319" data-name="Path 34319" d="M2276.44,87.409l1.935-14.476a1.793,1.793,0,0,0-3.555-.475l-1.935,14.473a1.793,1.793,0,0,0,3.555.477" transform="translate(-2123.157 -20.379)" fill="#003087"/>
  <path id="Path_34320" data-name="Path 34320" d="M2295.764,74.832l-9.962,15.58a1.792,1.792,0,0,0,3.02,1.928l9.965-15.579a1.793,1.793,0,0,0-3.022-1.929" transform="translate(-2126.78 -21.265)" fill="#003087"/>
  <path id="Path_34321" data-name="Path 34321" d="M2265.756,98.635s.009.036-.005-.007a1.408,1.408,0,0,1-.042-.157c-.028-.1-.059-.2-.082-.279.018.058.039.128.064.211-.049-.229-.1-.435-.295-.493-.88-1.334-1.862-.713-16.149-3.137-2.753-5.029-5.909-11.135-8.375-16.417a23.354,23.354,0,0,0-1.124-2.166,2.48,2.48,0,0,0-1.481-1.093l-5.921-1.578c.03.048.056.1.086.144a2.393,2.393,0,0,0-.265-.039,2.24,2.24,0,0,0-1.736,1.058l-9.568,18.931-21.033,2.862a1.924,1.924,0,0,0-1.1,3.27l15.061,14.945-3.78,20.873a1.927,1.927,0,0,0,2.775,2.053l18.879-9.7,18.7,10.042a1.879,1.879,0,0,0,2.218-.3c.007.035.012.068.018.106,2.734-2.943,4.693-3.8,4.371-6.437-.581-4.73-.958-9.455-1.558-14.183,2.1-2.151,4.22-4.277,6.424-6.319a28.08,28.08,0,0,0,3.76-3.533,6.553,6.553,0,0,0,1.117-4.315,32.843,32.843,0,0,0-.96-4.341m-19.366,14.305a1.915,1.915,0,0,0-.57,1.7l2.937,18.088c-16.731-8.894-16.593-9.394-17.948-8.694l-16.31,8.379,3.265-18.032a1.924,1.924,0,0,0-.537-1.709l-13.014-12.911,18.175-2.469a1.925,1.925,0,0,0,1.458-1.04l8.265-16.358,7.966,16.511a1.928,1.928,0,0,0,1.44,1.064l18.121,2.8Z" transform="translate(-2101.725 -21.131)" fill="#003087"/>
</svg>
